<svg width="180" height="180" viewBox="0 0 180 180" fill="none" xmlns="http://www.w3.org/2000/svg">
<path fill-rule="evenodd" clip-rule="evenodd" d="M180 180H0V0H180V180ZM61.328 49.95C60.236 49.95 59.267 50.65 58.923 51.686L51.188 74.895C50.899 75.76 51.543 76.651 52.453 76.651H74.915C75.825 76.651 76.469 77.543 76.181 78.408L59.553 128.293C59.264 129.158 59.908 130.05 60.818 130.05H84.906C85.998 130.05 86.967 129.35 87.312 128.314L103.956 78.385C104.3 77.349 105.269 76.649 106.361 76.649H128.871C129.963 76.649 130.933 75.95 131.277 74.914L139.012 51.707C139.3 50.842 138.657 49.95 137.746 49.95H61.328Z" fill="#333333"/>
</svg>
